<svg xmlns="http://www.w3.org/2000/svg" id="Layer_1" viewBox="0 0 70 55">
  <style>
    .st0{fill:#FFFFFF;stroke:#71AF05;stroke-miterlimit:10;} .st1{fill:#DBEBC0;stroke:#71AF05;stroke-linecap:round;stroke-miterlimit:10;} .st2{fill:#71AF05;} .st3{fill:#FFFFFF;}
  </style>
  <path d="M54 52.5H15c-1.1 0-2-.9-2-2v-47c0-1.1.9-2 2-2h39c1.1 0 2 .9 2 2v47c0 1.1-.9 2-2 2z" class="st0"/>
  <path d="M21 12h27m-27 5h27m-27 5h27m-27 5h27" class="st1"/>
  <path d="M43.5 42h-18c-1.9 0-3.5-1.6-3.5-3.5s1.6-3.5 3.5-3.5h18c1.9 0 3.5 1.6 3.5 3.5S45.4 42 43.5 42z" class="st2"/>
  <circle cx="56" cy="17" r="10" class="st2"/>
  <path d="M56 23c-.6 0-1-.4-1-1V12c0-.6.4-1 1-1s1 .4 1 1v10c0 .6-.4 1-1 1z" class="st3"/>
  <path d="M62 16.9v.1c0 .5-.4.9-.9.9H50.9c-.5 0-.9-.4-.9-.9v-.1c0-.5.4-.9.9-.9H61c.6 0 1 .4 1 .9z" class="st3"/>
</svg>
