<svg xmlns="http://www.w3.org/2000/svg" id="Layer_1" viewBox="0 0 70 55">
  <style>
    .st0{fill:#DBEBC0;stroke:#71AF05;stroke-miterlimit:10;} .st1{fill:#FFFFFF;stroke:#71AF05;stroke-miterlimit:10;}
  </style>
  <path d="M27.5 34.9c-1.1-3.9-2.7-8.4-13.5-8.4S1.6 31 .5 34.9c3.5 4.8 23.4 4.8 27 0z" class="st0"/>
  <path d="M21 18.2c0 5.7-3.1 10.3-7 10.3s-7-4.6-7-10.3 3.1-8.7 7-8.7 7 3 7 8.7zm48.5 16.7c-1.1-3.9-2.7-8.4-13.5-8.4S43.6 31 42.5 34.9c3.5 4.8 23.4 4.8 27 0z" class="st0"/>
  <path d="M63 18.2c0 5.7-3.1 10.3-7 10.3s-7-4.6-7-10.3 3.1-8.7 7-8.7 7 3 7 8.7z" class="st0"/>
  <path d="M59 43.1c-1.7-5.8-7.3-12.6-24-12.6s-22.3 6.8-24 12.6c5.4 7.2 42.5 7.3 48 0z" class="st1"/>
  <path d="M46 17.7c0 8.7-4.9 15.8-11 15.8s-11-7.1-11-15.8S28.9 4.5 35 4.5 46 9 46 17.7z" class="st1"/>
</svg>
